RBDS018runT35_grf
version=1
nRows=37
nColumns=19
inDegrees=no
endheader
time	ground_force_r_vx	ground_force_r_vy	ground_force_r_vz	ground_force_r_px	ground_force_r_py	ground_force_r_pz	ground_force_r_mx	ground_force_r_my	ground_force_r_mz	ground_force_l_vx	ground_force_l_vy	ground_force_l_vz	ground_force_l_px	ground_force_l_py	ground_force_l_pz	ground_force_l_mx	ground_force_l_my	ground_force_l_mz
      7.49900000	    -66.73821959	    183.33869642	      4.56858878	      2.40155945	      0.00000000	      1.03833911	      0.00000000	     -5.49858013	     -0.00000000	      0.00000000	      0.00000000	      0.00000000	      0.00000000	      0.00000000	      0.00000000	      0.00000000	      0.00000000	      0.00000000
      7.50000000	    -72.95862480	    227.41473756	      4.18595139	      2.39882400	      0.00000000	      1.03714522	      0.00000000	     -5.36145492	     -0.00000000	      0.00000000	      0.00000000	      0.00000000	      0.00000000	      0.00000000	      0.00000000	      0.00000000	      0.00000000	      0.00000000
      7.50100000	    -79.10961346	    271.12421706	      3.91458998	      2.39608948	      0.00000000	      1.03595472	      0.00000000	     -5.18100030	     -0.00000000	      0.00000000	      0.00000000	      0.00000000	      0.00000000	      0.00000000	      0.00000000	      0.00000000	      0.00000000	      0.00000000
      7.50200000	    -85.26060213	    314.83369656	      3.64322857	      2.39335496	      0.00000000	      1.03476423	      0.00000000	     -5.00054569	     -0.00000000	      0.00000000	      0.00000000	      0.00000000	      0.00000000	      0.00000000	      0.00000000	      0.00000000	      0.00000000	      0.00000000
      7.50300000	    -91.41159079	    358.54317606	      3.37186716	      2.39062044	      0.00000000	      1.03357373	      0.00000000	     -4.82009107	     -0.00000000	      0.00000000	      0.00000000	      0.00000000	      0.00000000	      0.00000000	      0.00000000	      0.00000000	      0.00000000	      0.00000000
      7.50400000	    -97.45570943	    401.74486693	      3.21223510	      2.38788205	      0.00000000	      1.03239023	      0.00000000	     -4.61212207	     -0.00000000	      0.00000000	      0.00000000	      0.00000000	      0.00000000	      0.00000000	      0.00000000	      0.00000000	      0.00000000	      0.00000000
      7.50500000	   -103.44639306	    444.69266347	      3.10846770	      2.38514173	      0.00000000	      1.03121022	      0.00000000	     -4.39039588	     -0.00000000	      0.00000000	      0.00000000	      0.00000000	      0.00000000	      0.00000000	      0.00000000	      0.00000000	      0.00000000	      0.00000000
      7.50600000	   -109.43707669	    487.64046002	      3.00470030	      2.38240141	      0.00000000	      1.03003020	      0.00000000	     -4.16866968	     -0.00000000	      0.00000000	      0.00000000	      0.00000000	      0.00000000	      0.00000000	      0.00000000	      0.00000000	      0.00000000	      0.00000000
      7.50700000	   -115.34611835	    530.20952608	      2.97169003	      2.37965681	      0.00000000	      1.02885609	      0.00000000	     -3.93413511	     -0.00000000	      0.00000000	      0.00000000	      0.00000000	      0.00000000	      0.00000000	      0.00000000	      0.00000000	      0.00000000	      0.00000000
      7.50800000	   -121.09187609	    572.02113116	      3.08019401	      2.37690366	      0.00000000	      1.02769379	     -0.00000000	     -3.67398377	     -0.00000000	      0.00000000	      0.00000000	      0.00000000	      0.00000000	      0.00000000	      0.00000000	      0.00000000	      0.00000000	      0.00000000
      7.50900000	   -126.83763383	    613.83273624	      3.18869799	      2.37415051	      0.00000000	      1.02653148	     -0.00000000	     -3.41383242	     -0.00000000	      0.00000000	      0.00000000	      0.00000000	      0.00000000	      0.00000000	      0.00000000	      0.00000000	      0.00000000	      0.00000000
      7.51000000	   -132.58339158	    655.64434132	      3.29720197	      2.37139736	      0.00000000	      1.02536918	     -0.00000000	     -3.15368108	     -0.00000000	      0.00000000	      0.00000000	      0.00000000	      0.00000000	      0.00000000	      0.00000000	      0.00000000	      0.00000000	      0.00000000
      7.51100000	   -138.00897029	    695.97330082	      3.64789361	      2.36862485	      0.00000000	      1.02423192	     -0.00000000	     -2.85891072	     -0.00000000	      0.00000000	      0.00000000	      0.00000000	      0.00000000	      0.00000000	      0.00000000	      0.00000000	      0.00000000	      0.00000000
      7.51200000	   -143.43454901	    736.30226031	      3.99858526	      2.36585235	      0.00000000	      1.02309466	     -0.00000000	     -2.56414036	     -0.00000000	      0.00000000	      0.00000000	      0.00000000	      0.00000000	      0.00000000	      0.00000000	      0.00000000	      0.00000000	      0.00000000
      7.51300000	   -148.86012773	    776.63121981	      4.34927690	      2.36307984	      0.00000000	      1.02195740	     -0.00000000	     -2.26937000	     -0.00000000	      0.00000000	      0.00000000	      0.00000000	      0.00000000	      0.00000000	      0.00000000	      0.00000000	      0.00000000	      0.00000000
      7.51400000	   -154.02967031	    815.76397917	      4.87011497	      2.36029079	      0.00000000	      1.02084178	     -0.00000000	     -1.95477381	     -0.00000000	      0.00000000	      0.00000000	      0.00000000	      0.00000000	      0.00000000	      0.00000000	      0.00000000	      0.00000000	      0.00000000
      7.51500000	   -159.07119482	    854.29863846	      5.47602624	      2.35749349	      0.00000000	      1.01973697	     -0.00000000	     -1.63026469	     -0.00000000	      0.00000000	      0.00000000	      0.00000000	      0.00000000	      0.00000000	      0.00000000	      0.00000000	      0.00000000	      0.00000000
      7.51600000	   -164.11271933	    892.83329776	      6.08193752	      2.35469618	      0.00000000	      1.01863216	     -0.00000000	     -1.30575557	     -0.00000000	      0.00000000	      0.00000000	      0.00000000	      0.00000000	      0.00000000	      0.00000000	      0.00000000	      0.00000000	      0.00000000
      7.51700000	   -169.00899681	    930.67950751	      6.77131788	      2.35188931	      0.00000000	      1.01754063	     -0.00000000	     -0.97332760	     -0.00000000	      0.00000000	      0.00000000	      0.00000000	      0.00000000	      0.00000000	      0.00000000	      0.00000000	      0.00000000	      0.00000000
      7.51800000	   -173.61478022	    967.14881818	      7.62763642	      2.34906332	      0.00000000	      1.01647566	     -0.00000000	     -0.62506193	     -0.00000000	      0.00000000	      0.00000000	      0.00000000	      0.00000000	      0.00000000	      0.00000000	      0.00000000	      0.00000000	      0.00000000
      7.51900000	   -178.22056363	   1003.61812886	      8.48395497	      2.34623733	      0.00000000	      1.01541069	     -0.00000000	     -0.27679625	     -0.00000000	      0.00000000	      0.00000000	      0.00000000	      0.00000000	      0.00000000	      0.00000000	      0.00000000	      0.00000000	      0.00000000
      7.52000000	   -182.82634704	   1040.08743953	      9.34027351	      2.34341134	      0.00000000	      1.01434572	     -0.00000000	      0.07146942	     -0.00000000	      0.00000000	      0.00000000	      0.00000000	      0.00000000	      0.00000000	      0.00000000	      0.00000000	      0.00000000	      0.00000000
      7.52100000	   -186.95660221	   1074.26558904	     10.42459340	      2.34055460	      0.00000000	      1.01332782	     -0.00000000	      0.43648446	     -0.00000000	      0.00000000	      0.00000000	      0.00000000	      0.00000000	      0.00000000	      0.00000000	      0.00000000	      0.00000000	      0.00000000
      7.52200000	   -191.08685738	   1108.44373854	     11.50891329	      2.33769786	      0.00000000	      1.01230992	     -0.00000000	      0.80149949	     -0.00000000	      0.00000000	      0.00000000	      0.00000000	      0.00000000	      0.00000000	      0.00000000	      0.00000000	      0.00000000	      0.00000000
      7.52300000	   -195.21711255	   1142.62188805	     12.59323318	      2.33484111	      0.00000000	      1.01129202	     -0.00000000	      1.16651453	     -0.00000000	      0.00000000	      0.00000000	      0.00000000	      0.00000000	      0.00000000	      0.00000000	      0.00000000	      0.00000000	      0.00000000
      7.52400000	   -199.01101926	   1175.15438401	     13.80381191	      2.33196374	      0.00000000	      1.01031013	     -0.00000000	      1.53746226	     -0.00000000	      0.00000000	      0.00000000	      0.00000000	      0.00000000	      0.00000000	      0.00000000	      0.00000000	      0.00000000	      0.00000000
      7.52500000	   -202.63675175	   1206.86405319	     15.07752004	      2.32907606	      0.00000000	      1.00934623	     -0.00000000	      1.91137634	     -0.00000000	      0.00000000	      0.00000000	      0.00000000	      0.00000000	      0.00000000	      0.00000000	      0.00000000	      0.00000000	      0.00000000
      7.52600000	   -206.26248424	   1238.57372237	     16.35122818	      2.32618837	      0.00000000	      1.00838234	     -0.00000000	      2.28529042	     -0.00000000	      0.00000000	      0.00000000	      0.00000000	      0.00000000	      0.00000000	      0.00000000	      0.00000000	      0.00000000	      0.00000000
      7.52700000	   -209.71345504	   1269.41820683	     17.67057787	      2.32329091	      0.00000000	      1.00743861	     -0.00000000	      2.65936316	     -0.00000000	      0.00000000	      0.00000000	      0.00000000	      0.00000000	      0.00000000	      0.00000000	      0.00000000	      0.00000000	      0.00000000
      7.52800000	   -212.81490247	   1298.53232183	     19.08121066	      2.32037389	      0.00000000	      1.00653520	     -0.00000000	      3.03375323	     -0.00000000	      0.00000000	      0.00000000	      0.00000000	      0.00000000	      0.00000000	      0.00000000	      0.00000000	      0.00000000	      0.00000000
      7.52900000	   -215.91634989	   1327.64643683	     20.49184346	      2.31745686	      0.00000000	      1.00563179	     -0.00000000	      3.40814331	     -0.00000000	      0.00000000	      0.00000000	      0.00000000	      0.00000000	      0.00000000	      0.00000000	      0.00000000	      0.00000000	      0.00000000
      7.53000000	   -219.01779731	   1356.76055184	     21.90247625	      2.31453984	      0.00000000	      1.00472838	     -0.00000000	      3.78253338	     -0.00000000	      0.00000000	      0.00000000	      0.00000000	      0.00000000	      0.00000000	      0.00000000	      0.00000000	      0.00000000	      0.00000000
      7.53100000	   -221.58275814	   1383.20246022	     23.38684196	      2.31159663	      0.00000000	      1.00389128	     -0.00000000	      4.14873731	     -0.00000000	      0.00000000	      0.00000000	      0.00000000	      0.00000000	      0.00000000	      0.00000000	      0.00000000	      0.00000000	      0.00000000
      7.53200000	   -224.14771897	   1409.64436860	     24.87120767	      2.30865342	      0.00000000	      1.00305419	     -0.00000000	      4.51494124	     -0.00000000	      0.00000000	      0.00000000	      0.00000000	      0.00000000	      0.00000000	      0.00000000	      0.00000000	      0.00000000	      0.00000000
      7.53300000	   -226.71267980	   1436.08627698	     26.35557339	      2.30571021	      0.00000000	      1.00221710	     -0.00000000	      4.88114518	     -0.00000000	      0.00000000	      0.00000000	      0.00000000	      0.00000000	      0.00000000	      0.00000000	      0.00000000	      0.00000000	      0.00000000
      7.53400000	   -228.91586871	   1460.72828973	     27.84226668	      2.30275246	      0.00000000	      1.00142757	     -0.00000000	      5.23620385	      0.00000000	      0.00000000	      0.00000000	      0.00000000	      0.00000000	      0.00000000	      0.00000000	      0.00000000	      0.00000000	      0.00000000
      7.53500000	   -230.93817166	   1484.47035466	     29.33012376	      2.29978745	      0.00000000	      1.00066182	     -0.00000000	      5.58568989	      0.00000000	      0.00000000	      0.00000000	      0.00000000	      0.00000000	      0.00000000	      0.00000000	      0.00000000	      0.00000000	      0.00000000
